<svg width="99" height="61" viewBox="0 0 99 61" fill="none" xmlns="http://www.w3.org/2000/svg">
<path d="M28.7101 0V17.8976H1.83946C0.824278 17.8976 8.3292e-06 17.0715 8.3292e-06 16.0541V1.84352C-0.00302207 0.826089 0.821248 0 1.83643 0H28.707H28.7101Z" fill="#F7A000"/>
<path d="M57.4402 17.8976H28.709V0H39.5851C49.446 0 57.4433 8.01185 57.4433 17.8976H57.4402Z" fill="#A66C00"/>
<path d="M46.5611 35.789V59.1564C46.5611 60.1738 45.7368 60.9999 44.7216 60.9999H30.5484C29.5333 60.9999 28.709 60.1738 28.709 59.1564V17.8975C38.5699 17.8975 46.5611 25.9093 46.5611 35.789Z" fill="#F7A000"/>
<path d="M98.8943 1.84352V16.051C98.8943 17.0685 98.07 17.8945 97.0548 17.8945H57.4414V0H97.0548C98.07 0 98.8943 0.826089 98.8943 1.84352Z" fill="#F7A000"/>
<path d="M75.2985 35.792V59.1533C75.2985 60.1707 74.4742 60.9968 73.459 60.9968H59.2828C58.2676 60.9968 57.4434 60.1707 57.4434 59.1533V17.8975C67.3043 17.8975 75.3015 25.9093 75.3015 35.795L75.2985 35.792Z" fill="#A66C00"/>
</svg>
